# AST/ASF file generated using VICON BodyLanguage
# -----------------------------------------------
:version 1.10
:name VICON
:units
  mass 1.0
  length 0.45
  angle deg
:documentation
   .ast/.asf automatically generated from VICON data using
   VICON BodyBuilder and BodyLanguage model FoxedUp or BRILLIANT.MOD
:root
   order TX TY TZ RX RY RZ
   axis XYZ
   position 0 0 0  
   orientation 0 0 0 
:bonedata
  begin
     id 1 
     name lhipjoint
     direction 0.440178 -0.822639 0.359871 
     length 2.53113 
     axis 0 0 0  XYZ
  end
  begin
     id 2 
     name lfemur
     direction 0.34202 -0.939693 0  
     length 7.88132  
     axis 0 0 20  XYZ
    dof rx ry rz
    limits (-160.0 20.0)
           (-70.0 70.0)
           (-60.0 70.0)
  end
  begin
     id 3 
     name ltibia
     direction 0.34202 -0.939693 0   
     length 8.43783   
     axis 0 0 20   XYZ
    dof rx
    limits (-10.0 170.0)
  end
  begin
     id 4 
     name lfoot
     direction 0.0886351 -0.243523 0.965837   
     length 2.63414   
     axis -90 7.62852e-016 20   XYZ
    dof rx rz
    limits (-45.0 90.0)
           (-70.0 20.0)
  end
  begin
     id 5 
     name ltoes
     direction 1.53703e-011 -4.21717e-011 1   
     length 1.31427   
     axis -90 7.62852e-016 20   XYZ
    dof rx
    limits (-90.0 20.0)
  end
  begin
     id 6 
     name rhipjoint
     direction -0.399779 -0.839773 0.367367   
     length 2.47948  
     axis 0 0 0  XYZ 
  end
  begin
     id 7 
     name rfemur
     direction -0.34202 -0.939693 0   
     length 7.74806   
     axis 0 0 -20   XYZ
    dof rx ry rz
    limits (-160.0 20.0)
           (-70.0 70.0)
           (-70.0 60.0)
  end
  begin
     id 8 
     name rtibia
     direction -0.34202 -0.939693 0   
     length 8.74432   
     axis 0 0 -20   XYZ
    dof rx
    limits (-10.0 170.0)
 end
 begin
     id 9 
     name rfoot
     direction -0.108514 -0.298139 0.948334   
     length 2.66102  
     axis -90 -7.62852e-016 -20   XYZ
    dof rx rz
    limits (-45.0 90.0)
           (-20.0 70.0)
  end
  begin
     id 10 
     name rtoes
     direction -1.53392e-011 -4.22077e-011 1   
     length 1.31983   
     axis -90 -7.62852e-016 -20   XYZ
    dof rx
    limits (-90.0 20.0)
  end
  begin
     id 11 
     name lowerback
     direction 0.0113257 0.999866 0.0118602   
     length 2.58694   
     axis 0 0 0   XYZ
    dof rx ry rz
    limits (-20.0 45.0)
           (-30.0 30.0)
           (-30.0 30.0)
  end
  begin
     id 12 
     name upperback
     direction -0.0164747 0.995193 -0.0965375   
     length 2.52368   
     axis 0 0 0   XYZ
    dof rx ry rz
    limits (-20.0 45.0)
           (-30.0 30.0)
           (-30.0 30.0)
  end
  begin
     id 13 
     name thorax
     direction -0.0194301 0.99433 -0.104552   
     length 2.56099   
     axis 0 0 0   XYZ
    dof rx ry rz
    limits (-20.0 45.0)
           (-30.0 30.0)
           (-30.0 30.0)
  end
  begin
     id 14 
     name lowerneck
     direction 0.0148543 0.995587 -0.092657   
     length 1.71582   
     axis 0 0 0   XYZ
    dof rx ry rz
    limits (-20.0 45.0)
           (-30.0 30.0)
           (-30.0 30.0)
  end
  begin
     id 15 
     name upperneck
     direction -0.0135467 0.993656 -0.111639   
     length 1.68937   
     axis 0 0 0   XYZ
    dof rx ry rz
    limits (-20.0 45.0)
           (-30.0 30.0)
           (-30.0 30.0)
  end
  begin
     id 16
     name head
     direction -0.00615349 0.999547 -0.029448  
     length 1.7462  
     axis 0 0 0   XYZ
    dof rx ry rz
    limits (-20.0 45.0)
           (-30.0 30.0)
           (-30.0 30.0)
  end
  begin
     id 17 
     name lclavicle
     direction 0.988267 0.149885 0.0293713  
     length 4.47222  
     axis 0 0 0   XYZ
    dof ry rz
    limits (-20.0 10.0)
           (0.0 20.0)
  end
  begin
     id 18 
     name lhumerus
     direction 1 -4.48986e-011 -1.14833e-027   
     length 5.37148   
     axis 180 -30 -90   XYZ
    dof rx ry rz
    limits (-60.0 90.0)
           (-90.0 90.0)
           (-90.0 90.0)
  end
  begin
     id 19
     name lradius
     direction 0.999998 0.00170963 -0.000987055   
     length 3.94212   
     axis 180 -30 -90   XYZ
    dof rx
    limits (-10.0 170.0)
  end
  begin
     id 20
     name lwrist
     direction 0.999998 7.53149e-005 -0.00194706   
     length 1.97106   
     axis 4.65056e-015 90 90   XYZ
    dof ry
    limits (-180.0 0.0)
 end
  begin
     id 21 
     name lhand
     direction 1 -4.48973e-011 -1.31746e-026   
     length 1.17917   
     axis 8.4065e-015 90 90   XYZ
    dof rx rz
    limits (-90.0 90.0)
           (-45.0 45.0)
  end
  begin
     id 22 
     name lfingers
     direction 1 -4.49107e-011 -2.63492e-026   
     length 0.950679   
     axis 1.6813e-014 90 90   XYZ
    dof rx
    limits (0.0 90.0)
  end
  begin
     id 23
     name lthumb
     direction 0.707107 -6.35048e-011 0.707107   
     length 1.36499   
     axis -90 45 2.85299e-015   XYZ
    dof rx rz
    limits (-45.0 45.0)
           (-45.0 45.0)
  end
  begin
     id 24 
     name rclavicle
     direction -0.996699 0.0642895 -0.0495725   
     length 4.62611  
     axis 0 0 0   XYZ 
    dof ry rz
    limits (-10.0 20.0)
           (-20.0 0.0)
  end
  begin
     id 25 
     name rhumerus
     direction -1 -4.48919e-011 -2.41059e-027  
     length 5.4981   
     axis 180 30 90   XYZ
    dof rx ry rz
    limits (-90.0 60.0)
           (-90.0 90.0)
           (-90.0 90.0)
  end
  begin
     id 26 
     name rradius
     direction -0.999999 0.00118101 -0.000681858   
     length 3.48381   
     axis 180 30 90   XYZ
    dof rx
    limits (-10.0 170.0)
  end
  begin
     id 27 
     name rwrist
     direction -0.999999 0.000321823 -0.00132288   
     length 1.7419   
     axis 4.65056e-015 -90 -90   XYZ
    dof ry
    limits (-180.0 0.0)
  end
  begin
     id 28
     name rhand
     direction -1 -4.49022e-011 -1.31746e-026   
     length 1.34932   
     axis 8.4065e-015 -90 -90   XYZ
    dof rx rz
    limits (-90.0 90.0)
           (-45.0 45.0)
  end
  begin
     id 29
     name rfingers
     direction -1 -4.49178e-011 -2.63492e-026   
     length 1.08785   
     axis 1.6813e-014 -90 -90   XYZ
    dof rx
    limits (0.0 90.0)
  end
  begin
     id 30
     name rthumb
     direction -0.707107 -6.34713e-011 0.707107   
     length 1.56195   
     axis -90 -45 -2.85299e-015   XYZ
    dof rx rz
    limits (-45.0 45.0)
           (-45.0 45.0)
  end
:hierarchy
  begin
    root lhipjoint rhipjoint lowerback
    lhipjoint lfemur
    lfemur ltibia
    ltibia lfoot
    lfoot ltoes
    rhipjoint rfemur
    rfemur rtibia
    rtibia rfoot
    rfoot rtoes
    lowerback upperback
    upperback thorax
    thorax lowerneck lclavicle rclavicle
    lowerneck upperneck
    upperneck head
    lclavicle lhumerus
    lhumerus lradius
    lradius lwrist
    lwrist lhand lthumb
    lhand lfingers
    rclavicle rhumerus
    rhumerus rradius
    rradius rwrist
    rwrist rhand rthumb
    rhand rfingers
  end

#!OML:ASF X:\für Bonn\!DataBase\2005_08_10_Bjorn_Final\c3d\bjorn.ASF
:FULLY-SPECIFIED
:DEGREES
16
root 1.22562 18.3467 4.12857 -163.748 -17.5737 177.193
lowerback 8.76209 -0.945034 1.48001
upperback 12.0762 -2.76415 -1.76416
thorax 7.71122 -1.81378 -2.72223
lowerneck -9.08562 -4.04704 -6.69616
upperneck -6.03636 -5.14308 7.72221
head 0.0517601 -2.64761 3.52853
rclavicle 0 5.96354e-016
rhumerus -36.4885 -10.7102 -86.3784
rradius 29.112
rwrist 18.1869
rhand -14.04 21.2969
rfingers 7.12502
rthumb 12.0905 -8.33376
lclavicle 0 5.96354e-016
lhumerus -28.0198 -31.8664 92.4286
lradius 59.937
lwrist -17.5062
lhand -41.3424 -16.2856
lfingers 7.12502
lthumb -14.2616 13.2047
rfemur -51.6853 -7.65134 16.7067
rtibia 52.6176
rfoot -11.9269 8.47551
rtoes -9.80679
lfemur -3.55911 0.783052 -14.8355
ltibia 30.138
lfoot -20.7455 -0.145387
ltoes -29.1626
17
root 1.23278 18.2711 4.06349 -164.151 -17.6444 177.532
lowerback 9.18948 -1.05244 2.03732
upperback 12.268 -2.95337 -1.63679
thorax 7.66718 -1.89238 -2.88471
lowerneck -9.54446 -3.90897 -6.64907
upperneck -6.39906 -4.97998 7.49352
head -0.0100399 -2.5843 3.4433
rclavicle 1.41137e-014 1.33186e-014
rhumerus -35.8648 -11.2082 -85.8806
rradius 28.6915
rwrist 18.7109
rhand -14.2633 21.1577
rfingers 7.12502
rthumb 11.8752 -8.48555
lclavicle 1.41137e-014 1.33186e-014
lhumerus -27.9683 -31.0457 92.3828
lradius 60.0148
lwrist -17.4987
lhand -41.3395 -15.9181
lfingers 7.12502
lthumb -14.2588 13.5724
rfemur -51.3756 -7.57518 17.2199
rtibia 53.2146
rfoot -13.1293 8.42443
rtoes -11.0639
lfemur -2.76138 -0.124848 -14.6509
ltibia 30.5786
lfoot -21.4875 0.754596
ltoes -28.5273
18
root 1.23945 18.1885 3.99946 -164.554 -17.7222 177.916
lowerback 9.53855 -1.201 2.59883
upperback 12.4429 -3.19223 -1.46972
thorax 7.64697 -1.99484 -3.00692
lowerneck -9.96884 -3.74959 -6.69977
upperneck -6.81622 -4.78701 7.26807
head -0.0949571 -2.50765 3.38121
rclavicle 2.36554e-014 1.59028e-014
rhumerus -35.1622 -11.6458 -85.3447
rradius 28.2198
rwrist 18.9625
rhand -14.3821 21.0655
rfingers 7.12502
rthumb 11.7606 -8.58433
lclavicle 2.36554e-014 1.59028e-014
lhumerus -27.8187 -30.034 92.3371
lradius 59.9591
lwrist -17.526
lhand -41.2517 -15.4687
lfingers 7.12502
lthumb -14.1742 14.0277
rfemur -51.1332 -7.44866 17.7371
rtibia 53.8945
rfoot -14.219 8.37687
rtoes -12.2865
lfemur -2.02823 -0.972384 -14.4423
ltibia 31.179
lfoot -22.1414 1.67406
ltoes -28.9092
19
root 1.24625 18.1044 3.93421 -164.971 -17.8204 178.356
lowerback 9.79055 -1.37056 3.18923
upperback 12.6212 -3.45779 -1.28739
thorax 7.68289 -2.10675 -3.13156
lowerneck -10.2496 -3.55522 -6.7689
upperneck -7.42153 -4.56122 7.05959
head -0.267313 -2.42247 3.33568
rclavicle -9.93923e-015 2.98177e-014
rhumerus -34.4022 -12.1654 -84.7884
rradius 27.7312
rwrist 19.085
rhand -14.3736 20.9396
rfingers 7.12502
rthumb 11.7688 -8.70978
lclavicle -9.93923e-015 2.98177e-014
lhumerus -27.5699 -28.9801 92.2491
lradius 59.7136
lwrist -17.4035
lhand -41.1275 -15.0822
lfingers 7.12502
lthumb -14.0545 14.4226
rfemur -50.9307 -7.20975 18.2381
rtibia 54.6241
rfoot -15.2213 8.32704
rtoes -12.9413
lfemur -1.33368 -1.72416 -14.1874
ltibia 31.9003
lfoot -22.5553 2.70062
ltoes -30.5738
20
root 1.25225 18.0219 3.86715 -165.499 -17.8979 178.832
lowerback 10.093 -1.5211 3.81213
upperback 12.7998 -3.69672 -1.12069
thorax 7.69078 -2.20427 -3.28736
lowerneck -10.409 -3.35744 -6.80406
upperneck -8.11186 -4.34507 6.88627
head -0.487146 -2.34672 3.29943
rclavicle 2.88238e-014 2.74323e-014
rhumerus -33.701 -12.8018 -84.2347
rradius 27.3064
rwrist 19.0917
rhand -14.2693 20.7435
rfingers 7.12502
rthumb 11.8695 -8.90009
lclavicle 2.88238e-014 2.74323e-014
lhumerus -27.2353 -27.9826 92.1218
lradius 59.1526
lwrist -17.1973
lhand -40.9754 -14.7345
lfingers 7.12502
lthumb -13.9079 14.7804
rfemur -50.6469 -6.86307 18.7087
rtibia 55.3821
rfoot -16.1909 8.2579
rtoes -13.4238
lfemur -0.556756 -2.45026 -13.934
ltibia 32.7239
lfoot -22.7184 3.6901
ltoes -32.6121
21
root 1.25674 17.945 3.79946 -166.112 -17.9429 179.328
lowerback 10.5064 -1.68095 4.43074
upperback 12.8998 -3.92476 -0.96155
thorax 7.54759 -2.2976 -3.43506
lowerneck -10.396 -3.14876 -6.86585
upperneck -8.72208 -4.11104 6.73378
head -0.709914 -2.2562 3.27849
rclavicle -3.06128e-014 1.17283e-014
rhumerus -33.1917 -13.4784 -83.6225
rradius 26.9256
rwrist 19.0212
rhand -14.2612 20.6258
rfingers 7.12502
rthumb 11.8772 -9.01733
lclavicle -3.06128e-014 1.17283e-014
lhumerus -26.9718 -26.9763 92.0468
lradius 58.3238
lwrist -16.86
lhand -40.6496 -14.2345
lfingers 7.12502
lthumb -13.594 15.3016
rfemur -50.2807 -6.43494 19.1433
rtibia 56.1343
rfoot -17.0929 8.20561
rtoes -13.6044
lfemur 0.234842 -3.22513 -13.709
ltibia 33.7137
lfoot -22.586 4.66427
ltoes -34.2605
22
root 1.26078 17.876 3.73056 -166.751 -17.9845 179.835
lowerback 10.9125 -1.85925 5.06112
upperback 12.981 -4.16713 -0.817093
thorax 7.38414 -2.39683 -3.60041
lowerneck -10.3672 -2.92798 -6.86027
upperneck -9.32274 -3.87313 6.54327
head -0.934832 -2.16541 3.2322
rclavicle 3.57812e-015 -8.15017e-015
rhumerus -32.7715 -14.0457 -83.0603
rradius 26.7196
rwrist 18.604
rhand -14.4942 20.4747
rfingers 7.12502
rthumb 11.6526 -9.18131
lclavicle 3.57812e-015 -8.15017e-015
lhumerus -26.5785 -25.9616 91.8972
lradius 57.254
lwrist -16.3657
lhand -40.0103 -13.4822
lfingers 7.12502
lthumb -12.9777 16.0942
rfemur -49.8778 -5.95092 19.5653
rtibia 56.8553
rfoot -17.9452 8.12163
rtoes -13.7623
lfemur 0.919532 -3.96152 -13.4778
ltibia 34.9513
lfoot -22.0945 5.60179
ltoes -35.6734
23
root 1.26397 17.8198 3.65896 -167.382 -17.9794 180.33
lowerback 11.308 -2.0551 5.64789
upperback 12.9613 -4.3999 -0.690463
thorax 7.11135 -2.49107 -3.75137
lowerneck -10.0996 -2.66525 -6.76126
upperneck -9.91742 -3.59285 6.28581
head -1.20335 -2.05179 3.15094
rclavicle 2.14687e-014 -6.95746e-015
rhumerus -32.5104 -14.5482 -82.4458
rradius 26.5586
rwrist 17.9143
rhand -14.8362 20.3354
rfingers 7.12502
rthumb 11.3227 -9.33895
lclavicle 2.14687e-014 -6.95746e-015
lhumerus -26.3597 -24.7607 91.7794
lradius 55.9871
lwrist -15.9062
lhand -39.1604 -12.813
lfingers 7.12502
lthumb -12.1584 16.8136
rfemur -49.4099 -5.50044 19.9907
rtibia 57.4493
rfoot -18.6907 8.11549
rtoes -13.6551
lfemur 1.52507 -4.62997 -13.278
ltibia 36.3857
lfoot -21.2108 6.33103
ltoes -36.3843
24
root 1.26585 17.7741 3.58693 -167.998 -17.9224 180.832
lowerback 11.6719 -2.25309 6.24039
upperback 12.8604 -4.60418 -0.588456
thorax 6.76315 -2.56704 -3.92678
lowerneck -9.63635 -2.38619 -6.56895
upperneck -10.5436 -3.30532 5.97524
head -1.51693 -1.93472 3.03839
rclavicle 3.18055e-014 -1.2921e-014
rhumerus -32.2885 -15.1868 -81.768
rradius 26.2754
rwrist 17.2445
rhand -15.0063 20.3391
rfingers 7.12502
rthumb 11.1586 -9.3442
lclavicle 3.18055e-014 -1.2921e-014
lhumerus -26.2599 -23.4758 91.6485
lradius 54.5348
lwrist -15.3873
lhand -38.1953 -12.2498
lfingers 7.12502
lthumb -11.2276 17.4297
rfemur -48.9315 -5.08108 20.4375
rtibia 57.9847
rfoot -19.3646 8.17723
rtoes -13.4375
lfemur 1.93304 -5.11372 -13.063
ltibia 38.1979
lfoot -20.0814 6.59249
ltoes -36.2199
25
root 1.26543 17.7626 3.50699 -168.585 -17.8051 181.308
lowerback 11.9351 -2.44118 6.75516
upperback 12.772 -4.80289 -0.488844
thorax 6.48681 -2.64507 -4.06739
lowerneck -9.48798 -2.10996 -6.32068
upperneck -10.841 -3.00659 5.59899
head -1.66927 -1.80271 2.8802
rclavicle 1.98785e-016 -3.85642e-014
rhumerus -31.9079 -16.048 -81.0247
rradius 25.8396
rwrist 16.7993
rhand -15.0155 20.5191
rfingers 7.12502
rthumb 11.1498 -9.16462
lclavicle 1.98785e-016 -3.85642e-014
lhumerus -26.0673 -22.0665 91.4479
lradius 52.915
lwrist -14.9063
lhand -37.1227 -11.7382
lfingers 7.12502
lthumb -10.193 17.9948
rfemur -48.3139 -4.71751 20.885
rtibia 58.3646
rfoot -19.9914 8.34936
rtoes -13.0513
lfemur 2.15857 -5.48436 -12.8941
ltibia 40.2953
lfoot -18.8111 6.60463
ltoes -35.8837
26
root 1.26611 17.7258 3.4384 -169.124 -17.6511 181.764
lowerback 12.0691 -2.60618 7.19677
upperback 12.7027 -4.98425 -0.379875
thorax 6.30706 -2.71724 -4.1677
lowerneck -9.43799 -1.84348 -6.06891
upperneck -11.0546 -2.7178 5.201
head -1.77462 -1.67338 2.71027
rclavicle -9.6013e-014 4.45278e-014
rhumerus -31.3986 -17.0409 -80.2789
rradius 25.3856
rwrist 16.3998
rhand -14.9556 20.6366
rfingers 7.12502
rthumb 11.2076 -9.044
lclavicle -9.6013e-014 4.45278e-014
lhumerus -25.6677 -20.6648 91.1984
lradius 51.1021
lwrist -14.3435
lhand -35.8955 -11.0915
lfingers 7.12502
lthumb -9.00893 18.6961
rfemur -47.8934 -4.40853 21.3393
rtibia 58.8196
rfoot -20.5036 8.48646
rtoes -12.7475
lfemur 2.10795 -5.69004 -12.7105
ltibia 42.783
lfoot -17.4943 6.51328
ltoes -35.916
